<svg xmlns="http://www.w3.org/2000/svg" width="24" height="24" viewBox="0 0 24 24">
    <path d="M0 0h24v24H0z" fill="none" />
    <path fill="none" stroke="currentColor" stroke-linecap="round" stroke-linejoin="round" stroke-width="1.8" d="M8 7h8m-8 4h4M20 14.544V10c0-3.771 0-5.657-1.172-6.828S15.771 2 12 2S6.343 2 5.172 3.172S4 6.229 4 10v4.544c0 3.245 0 4.868.886 5.967a4 4 0 0 0 .603.603C6.59 22 8.211 22 11.456 22H12.544C15.789 22 17.411 22 18.511 21.114A4 4 0 0 0 19.114 20.511C20 19.412 20 17.789 20 14.544Z" />
</svg>