<svg xmlns="http://www.w3.org/2000/svg" width="1em" height="1em" viewBox="0 0 24 24">
    <path d="M0 0h24v24H0z" fill="none" />
    <g fill="none" stroke="currentColor" stroke-linecap="round" stroke-linejoin="round" stroke-width="1.8">
        <path d="M4 13v1.545c0 3.245 0 4.867.886 5.966a4 4 0 0 0 .603.603C6.59 22 8.211 22 11.456 22c.705 0 1.058 0 1.381-.114q.1-.034.197-.081c.31-.148.559-.398 1.058-.896l4.736-4.737c.579-.578.867-.867 1.02-1.235c.152-.367.152-.776.152-1.593V10c0-3.77 0-5.656-1.172-6.828c-1.059-1.06-2.701-1.16-5.793-1.17M13 21.5V21c0-2.828 0-4.242.879-5.12C14.757 15 16.172 15 19 15h.5" />
        <path stroke-linejoin="round"
              d="m17.974 9.803a.026.026 0 0 1 .052 0a3.79 3.79 0 0 0 2.953 2.952c.028.006.028.046 0 .052a3.79 3.79 0 0 0-2.953 2.953c-.006.028-.046.028-.052 0a3.79 3.79 0 0 0-2.953-2.953c-.028-.006-.028-.046 0-.052a3.79 3.79 0 0 0 2.953-2.952Z"
              transform="translate(6.5, 5.5) scale(1.3) translate(-18.026, -12.756)" />
    </g>
</svg>