<svg width="384" height="512" viewBox="0 0 384 512" fill="none" xmlns="http://www.w3.org/2000/svg">
<path d="M277.333 0C336.213 0 384 47.787 384 106.667V405.333C384 464.213 336.213 512 277.333 512H106.667C47.787 512 0 464.213 0 405.333V106.667C0 47.787 47.787 0 106.667 0H277.333ZM234.656 164.8C225.695 156.136 212.671 153.647 200.896 158.327C189.018 163.008 181.619 173.464 181.619 185.713V206.227H108.367C85.5476 206.227 67 224.152 67 246.16V265.877C67 287.885 85.5476 305.81 108.367 305.81H181.515V326.324C181.619 338.573 189.017 349.03 200.792 353.71C204.751 355.204 208.815 356 212.879 356C220.798 356 228.509 353.012 234.344 347.436L304.887 284.001C321.037 268.566 321.038 243.471 304.887 228.035L304.679 227.836L234.656 164.8Z" fill="black"/>
</svg>
